<svg width="97" height="50" viewBox="0 0 97 50" fill="none" xmlns="http://www.w3.org/2000/svg">
<path d="M11.5662 0.5C11.5662 0.5 5.67468 7.28703 7.97833 16.7549C8.73298 19.8672 10.3879 22.6788 12.4797 25.1242C20.9662 35.0105 34.9867 42.6999 59.7973 46.7799C59.7973 46.7799 40.1236 50.4154 17.0473 38.2144C14.1611 36.6844 11.4735 34.8275 9.0772 32.6043C4.21834 28.0797 -0.216857 22.1034 0.00821305 14.2179C0.07441 11.4979 0.749619 8.7909 2.21919 6.48932C5.43637 1.44155 10.4144 0.5 11.5662 0.5Z" fill="#EC8922"/>
<path d="M19.8276 22.2734H97.0001" stroke="#EE8621" stroke-width="4.78634"/>
<path d="M29.8101 20.8611C24.0775 20.8611 21.2178 17.121 21.2178 11.3671C21.2178 5.43009 24.2364 1.84695 30.1411 1.84695C32.4183 1.84695 34.2586 2.39619 35.662 3.5339C36.9727 4.69777 37.7141 6.29318 37.9127 8.30705H35.609C34.7882 8.30705 34.1791 7.92782 33.8217 7.1955C33.1862 5.86163 31.9549 5.18162 30.1411 5.18162C26.593 5.18162 25.0307 7.6532 25.0307 11.3671C25.0307 14.9764 26.54 17.5264 30.0352 17.5264C32.4183 17.5264 33.7952 16.2318 34.2056 14.1918H37.9127C37.5552 18.4549 34.5366 20.8611 29.8101 20.8611Z" fill="white"/>
<path fill-rule="evenodd" clip-rule="evenodd" d="M43.5128 9.98094H39.8588C40.2957 7.32628 42.1889 6.03165 45.5385 6.03165C49.55 6.03165 51.5889 7.32628 51.6683 9.98094V14.8718C51.6683 18.8342 49.2455 20.5996 45.3266 20.8611C41.8314 21.1357 39.4219 19.5403 39.4219 16.3626C39.5013 12.9102 42.03 11.9948 45.7106 11.6417C47.2728 11.4456 48.0672 10.9879 48.0672 10.2032C47.9878 9.39247 47.2199 8.98708 45.7106 8.98708C44.4131 8.98708 43.6982 9.31401 43.5128 9.98094ZM48.1202 14.7018V13.381C47.2728 13.7341 46.2799 14.0348 45.2207 14.2441C43.7644 14.5187 43.023 15.1987 43.023 16.258C43.1024 17.3957 43.6982 17.9318 44.8633 17.9318C46.8889 17.9318 48.1202 16.7418 48.1202 14.7018Z" fill="white"/>
<path d="M66.7084 6.24088L61.5848 20.5996H57.7056L52.5952 6.24088H56.6332L59.5724 16.3103L62.1011 7.52243C62.3791 6.67242 62.9749 6.24088 63.8884 6.24088H66.7084Z" fill="white"/>
<path d="M69.9782 2.14774C71.183 2.14774 71.7655 2.74928 71.739 3.91315V4.97239H68.085V2.14774H69.9782ZM69.9782 6.24088C71.1565 6.24088 71.739 6.81627 71.739 7.98013V20.5996H68.085V6.24088H69.9782Z" fill="white"/>
<path d="M84.3168 20.5996C83.112 20.508 82.503 19.9457 82.503 18.808V11.4194C82.4236 9.92863 81.5895 9.19631 79.9743 9.19631C78.3591 9.19631 77.525 9.92863 77.4985 11.4194V20.5996H73.7915V12.1517C73.7915 8.0586 75.8833 6.03165 80.0273 6.03165C84.1712 6.03165 86.2101 8.0586 86.1836 12.1517V20.5996H84.3168Z" fill="white"/>
<path d="M20.7412 26.4058C20.7412 25.9742 20.953 25.7519 21.3767 25.7519H22.0122V31.8982H20.7412V26.4058Z" fill="white"/>
<path d="M26.7781 25.7519H27.4665L29.9952 29.9628V25.7519H31.253V31.8982H29.929L27.3871 27.6743V31.8982H26.1426V26.4058C26.1426 26.0527 26.4206 25.7519 26.7781 25.7519Z" fill="white"/>
<path d="M38.4156 29.1781H36.6547V31.8982H35.397V26.4058C35.397 26.0527 35.6882 25.7519 36.0457 25.7519H39.9116V26.8112H36.6547V28.132H39.0908V28.5374C39.0908 28.8904 38.773 29.1781 38.4156 29.1781Z" fill="white"/>
<path fill-rule="evenodd" clip-rule="evenodd" d="M43.8706 28.825C43.8706 26.9419 45.0092 25.6473 46.8495 25.6473C48.703 25.6473 49.8416 26.955 49.8416 28.825C49.8416 30.7082 48.7427 31.9897 46.8495 31.9897C44.9562 31.9897 43.8706 30.6951 43.8706 28.825ZM45.1548 28.825C45.1548 30.0281 45.6844 30.9305 46.8495 30.9305C48.0145 30.9305 48.5574 30.0543 48.5574 28.825C48.5574 27.6089 48.0145 26.7327 46.8495 26.7327C45.6844 26.7327 45.1548 27.622 45.1548 28.825Z" fill="white"/>
<path d="M54.303 25.7519H58.6058V26.8373H56.7788V31.8982H55.4946V26.8373H53.6543V26.4058C53.6543 26.0527 53.9456 25.7519 54.303 25.7519Z" fill="white"/>
<path d="M62.71 26.4058C62.71 25.9873 62.9218 25.7519 63.3455 25.7519H67.2114V26.8112H63.9677V28.132H66.3905V28.5374C66.4038 28.9689 66.1787 29.1781 65.7285 29.1781H63.9677V30.7605H67.2114V31.8982H62.71V26.4058Z" fill="white"/>
<path d="M74.1224 31.9897C72.2159 31.9897 71.2627 30.7343 71.2627 28.825C71.2627 26.8373 72.2689 25.6473 74.2416 25.6473C74.9962 25.6473 75.6052 25.8304 76.0686 26.2096C76.5187 26.5889 76.757 27.125 76.8232 27.792H76.0554C75.7773 27.792 75.5787 27.6743 75.4596 27.4258C75.2478 26.9812 74.8373 26.7589 74.2416 26.7589C73.05 26.7589 72.5337 27.5827 72.5337 28.825C72.5337 30.0281 73.0368 30.8782 74.2018 30.8782C74.9962 30.8782 75.4596 30.4335 75.592 29.7535H76.8232C76.7041 31.1789 75.6979 31.9897 74.1224 31.9897Z" fill="white"/>
<path d="M81.5628 25.7519H82.2115V28.0404H84.7667V25.7519H86.0509V31.8982H84.7667V29.1781H82.2115V31.8982H80.9141V26.4058C80.9141 26.0527 81.2053 25.7519 81.5628 25.7519Z" fill="white"/>
<path d="M41.8843 42.6999C41.8843 46.453 38.7995 49.5 34.9865 49.5C31.1868 49.5 28.1021 46.453 28.1021 42.6999C28.1021 38.9337 31.1868 35.8867 34.9865 35.8867C38.7995 35.8867 41.8843 38.9337 41.8843 42.6999Z" fill="white"/>
</svg>
